<svg xmlns="http://www.w3.org/2000/svg" width="720" height="380" viewBox="0 0 720 380" font-family="-apple-system,Segoe UI,Helvetica,Arial,sans-serif">
<rect width="720" height="380" fill="#ffffff"/>
<text x="74" y="26" font-size="15" font-weight="600" fill="#1f2937">요청당 출력 토큰 — 처리량 차이의 진짜 원인</text>
<text x="74" y="44" font-size="11" fill="#6b7280">tok/s 가 낮은 쪽이 느린 게 아니라 짧다. 토큰이 적으면 tok/s 도 낮게 찍힌다.</text>
<line x1="74" y1="318.0" x2="696" y2="318.0" stroke="#e5e7eb"/>
<text x="66" y="322.0" font-size="11" fill="#6b7280" text-anchor="end">0</text>
<line x1="74" y1="264.8" x2="696" y2="264.8" stroke="#e5e7eb"/>
<text x="66" y="268.8" font-size="11" fill="#6b7280" text-anchor="end">30</text>
<line x1="74" y1="211.6" x2="696" y2="211.6" stroke="#e5e7eb"/>
<text x="66" y="215.6" font-size="11" fill="#6b7280" text-anchor="end">60</text>
<line x1="74" y1="158.4" x2="696" y2="158.4" stroke="#e5e7eb"/>
<text x="66" y="162.4" font-size="11" fill="#6b7280" text-anchor="end">90</text>
<line x1="74" y1="105.2" x2="696" y2="105.2" stroke="#e5e7eb"/>
<text x="66" y="109.2" font-size="11" fill="#6b7280" text-anchor="end">120</text>
<line x1="74" y1="52.0" x2="696" y2="52.0" stroke="#e5e7eb"/>
<text x="66" y="56.0" font-size="11" fill="#6b7280" text-anchor="end">150</text>
<text x="14" y="185.0" font-size="11" fill="#6b7280" text-anchor="middle" transform="rotate(-90 14 185.0)">토큰 / 요청</text>
<text x="385.0" y="368" font-size="11" fill="#6b7280" text-anchor="middle">동시성</text>
<text x="136.2" y="336" font-size="11" fill="#6b7280" text-anchor="middle">1</text>
<text x="260.6" y="336" font-size="11" fill="#6b7280" text-anchor="middle">2</text>
<text x="385.0" y="336" font-size="11" fill="#6b7280" text-anchor="middle">4</text>
<text x="509.4" y="336" font-size="11" fill="#6b7280" text-anchor="middle">8</text>
<text x="633.8" y="336" font-size="11" fill="#6b7280" text-anchor="middle">16</text>
<line x1="74" y1="91.0" x2="696" y2="91.0" stroke="#dc2626" stroke-width="1.5" stroke-dasharray="6 4"/>
<rect x="91.4" y="102.1" width="44.8" height="215.9" fill="#2563eb" rx="1.5"/>
<rect x="215.8" y="102.1" width="44.8" height="215.9" fill="#2563eb" rx="1.5"/>
<rect x="340.2" y="102.1" width="44.8" height="215.9" fill="#2563eb" rx="1.5"/>
<rect x="464.6" y="102.1" width="44.8" height="215.9" fill="#2563eb" rx="1.5"/>
<rect x="589.0" y="102.1" width="44.8" height="215.9" fill="#2563eb" rx="1.5"/>
<rect x="136.2" y="121.9" width="44.8" height="196.1" fill="#16a34a" rx="1.5"/>
<rect x="260.6" y="121.9" width="44.8" height="196.1" fill="#16a34a" rx="1.5"/>
<rect x="385.0" y="121.7" width="44.8" height="196.3" fill="#16a34a" rx="1.5"/>
<rect x="509.4" y="121.9" width="44.8" height="196.1" fill="#16a34a" rx="1.5"/>
<rect x="633.8" y="121.9" width="44.8" height="196.1" fill="#16a34a" rx="1.5"/>
<line x1="74" y1="342" x2="94" y2="342" stroke="#2563eb" stroke-width="2.5"/>
<text x="100" y="346" font-size="11" fill="#1f2937">blue</text>
<line x1="133" y1="342" x2="153" y2="342" stroke="#16a34a" stroke-width="2.5"/>
<text x="159" y="346" font-size="11" fill="#1f2937">green</text>
<line x1="199" y1="342" x2="219" y2="342" stroke="#dc2626" stroke-width="2" stroke-dasharray="6 4"/>
<text x="225" y="346" font-size="11" fill="#1f2937">max_tokens=128</text>
</svg>
